<?xml version="1.0"?>
<svg xmlns="http://www.w3.org/2000/svg" viewBox="0 0 50 50">
    <path style="line-height:normal;text-indent:0;text-align:start;text-decoration-line:none;text-decoration-style:solid;text-decoration-color:#000;text-transform:none;block-progression:tb;isolation:auto;mix-blend-mode:normal" d="M 0.001953125 3.0019531 L 0.001953125 35 L 1.9980469 35 L 1.9980469 4.9980469 L 45 4.9980469 L 45 3.0019531 L 0.001953125 3.0019531 z M 3.9980469 7 L 4.0429688 38.958984 L 30.050781 39 C 30.556314 44.035422 34.837148 48 40 48 C 45.5 48 50 43.5 50 38 C 50 35.767371 49.248916 33.706061 48 32.037109 L 48 7 L 3.9980469 7 z M 6.0019531 9 L 46 9 L 46 11.34375 C 44.966446 12.244751 30.313382 25.01805 29.041016 26.125 C 27.921457 27.099744 26.782409 27.294922 26.175781 27.294922 C 25.570237 27.294922 24.433128 27.097274 23.3125 26.123047 L 23.310547 26.123047 C 22.007543 24.988417 6.4542051 11.433483 6.0039062 11.041016 L 6.0019531 9 z M 6.0078125 13.697266 C 7.7091309 15.180107 12.722333 19.549322 17.273438 23.515625 L 6.0332031 32.404297 L 6.0078125 13.697266 z M 46 13.996094 L 46 30.027344 C 44.324674 28.761674 42.249111 28 40 28 C 34.837148 28 30.556314 31.964578 30.050781 37 L 6.0390625 36.960938 L 6.0371094 34.951172 L 18.806641 24.851562 C 19.845536 25.756915 21.75706 27.422974 21.998047 27.632812 C 23.522932 28.959452 25.139597 29.294922 26.175781 29.294922 C 27.211154 29.294922 28.829074 28.960069 30.353516 27.632812 C 31.537601 26.602667 43.179339 16.454698 46 13.996094 z M 40 30 C 44.4 30 48 33.6 48 38 C 48 42.4 44.4 46 40 46 C 35.6 46 32 42.4 32 38 C 32 33.6 35.6 30 40 30 z M 36.623047 33.476562 C 36.549609 33.46875 36.475391 33.475 36.400391 33.5 L 36.300781 33.5 C 35.800781 33.6 35.4 34.099219 35.5 34.699219 C 35.5 34.899219 35.600781 35.100781 35.800781 35.300781 L 38.599609 38.099609 L 35.800781 40.900391 C 35.400781 41.300391 35.400781 41.900781 35.800781 42.300781 C 36.200781 42.700781 36.799219 42.700781 37.199219 42.300781 L 40 39.5 L 42.800781 42.300781 C 43.200781 42.700781 43.799219 42.700781 44.199219 42.300781 C 44.599219 41.900781 44.599219 41.300391 44.199219 40.900391 L 41.400391 38 L 44.199219 35.199219 C 44.599219 34.799219 44.600781 34.200781 44.300781 33.800781 C 44.100781 33.600781 43.700391 33.4 43.400391 33.5 C 43.200391 33.5 43.000781 33.600781 42.800781 33.800781 L 40 36.599609 L 37.199219 33.800781 C 37.049219 33.650781 36.843359 33.5 36.623047 33.476562 z" font-weight="400" font-family="sans-serif" white-space="normal" overflow="visible"/>
</svg>
